<svg width="1366" height="1080" viewBox="0 0 1366 1080" fill="none" xmlns="http://www.w3.org/2000/svg">
<g clip-path="url(#clip0_225_4290)">
<path d="M-5 -4H1370V727H-5V-4Z" fill="#151515"/>
<path d="M1366 800.195C1353.76 796.679 1341.25 797.997 1328.95 796.239C1320.01 794.955 1311.22 797.997 1302.27 797.435C1292.86 796.96 1283.56 796.89 1274.37 793.232C1268.66 790.964 1262.63 791.948 1256.77 792.951C1251.1 793.953 1245.36 793.953 1239.7 792.951C1229.27 790.999 1218.69 791.284 1208.32 793.795C1199.9 795.922 1191.23 796.274 1182.67 797.417C1182.19 797.383 1181.71 797.46 1181.25 797.646C1172.31 804.363 1162.79 800.705 1153.44 800.705C1149.77 800.555 1146.12 801.281 1142.64 802.851C1136.09 806.156 1129 803.519 1122.51 807.018C1121.13 807.757 1119.36 807.247 1117.78 807.106C1113.6 806.772 1109.37 806.455 1105.67 809.62C1098.45 815.845 1090.34 810.851 1082.67 813.524C1079.02 814.825 1075.08 814.702 1071.29 815.283C1065.44 816.267 1059.7 817.041 1053.76 815.019C1049.08 813.383 1044.27 815.441 1039.62 817.129C1025.26 822.404 1010.84 827.679 995.82 825.464C985.05 823.828 974.37 821.033 963.689 818.43C959.131 817.437 954.488 817.437 949.93 818.43C930.408 822.14 910.9 823.107 891.519 816.531C888.267 815.398 884.942 814.715 881.592 814.491C873.934 813.969 866.366 811.981 859.106 808.583C850.76 804.732 841.933 803.248 833.159 804.222C824.829 805.189 816.614 803.22 808.386 801.725C805.065 801.127 803.391 796.239 799.839 796.45C788.852 796.872 777.852 796.925 766.865 797.523C763.134 797.734 760.03 801.039 756.798 803.413C752.709 806.385 748.468 806.93 743.881 807.053C731.949 807.405 720.067 808.724 708.556 813.876C695.419 819.475 681.582 821.271 667.916 819.151C664.084 818.641 660.251 817.955 656.878 821.455C655.798 822.405 654.529 822.866 653.25 822.773C644.166 822.263 635.044 823.916 625.999 822.246C623.967 821.656 621.849 822.113 620.045 823.529C614.092 828.523 607.678 828.805 601.06 826.941C595.746 825.464 590.367 824.321 585.129 822.457C573.426 818.272 561.506 817.991 549.561 818.008C543.723 818.008 538.459 814.315 532.671 813.805C528.245 813.125 523.773 813.255 519.372 814.192C517.991 814.764 516.527 814.842 515.117 814.421C503.977 808.706 492.926 816.003 482.054 814.843C466.263 813.085 451.634 821.56 436.163 821.754C425.008 821.683 413.885 820.134 402.946 817.129C392.968 814.562 382.607 813.893 373.242 807.633C372.802 807.359 372.315 807.261 371.837 807.352C362.497 809.497 354.014 804.961 345.186 801.866C333.381 797.751 321.142 799.088 309.069 800.828C303 801.708 297.009 802.411 291.042 799.773C289.366 799.021 287.581 798.84 285.843 799.246C277.206 801.567 268.429 800.424 259.741 801.356C253.669 801.808 247.585 800.857 241.74 798.542C236.937 796.784 233.002 797.013 228.364 801.25C222.359 806.702 214.758 806.526 207.578 806.93C193.678 807.757 180.097 802.534 166.261 802.939C161.061 803.097 155.785 802.182 150.61 804.152C149.073 804.774 147.446 804.846 145.883 804.363C135.177 800.354 124.088 800.987 113.203 799.088C107.671 798.138 101.986 799.088 96.5942 799.088C90.4874 799.088 83.7418 797.329 77.3411 795.659C70.6338 793.9 64.1436 790.805 57.283 790.067C49.5026 789.223 42.2076 793.004 34.657 794.357C25.714 795.94 16.7709 797.065 7.82781 798.736C3.80343 799.492 -0.169851 800.828 -4.16868 801.778C-8.16752 802.728 -9.04905 801.356 -8.99794 796.503C-8.78075 776.299 -8.70409 756.059 -8.47413 735.926C-8.19334 727.132 -8.31708 718.322 -8.84462 709.549C-9.13846 705.892 -8.58912 703.835 -5.34406 704.01C83.5629 708.705 172.483 705.294 261.39 705.47C543.378 706.056 825.361 706.109 1107.34 705.628C1191.97 705.628 1276.59 705.833 1361.22 706.244C1362.79 706.244 1364.38 706.525 1365.95 706.683L1366 800.195Z" fill="#151515"/>
</g>
<defs>
<clipPath id="clip0_225_4290">
<rect width="1366" height="1080" fill="white"/>
</clipPath>
</defs>
</svg>
