<svg width="1366" height="1080" viewBox="0 0 1366 1080" fill="none" xmlns="http://www.w3.org/2000/svg">
<g clip-path="url(#clip0_223_2867)">
<path d="M0 449H1375V1080H0V449Z" fill="#151515"/>
<path d="M-8.99996 378.805C3.23927 382.321 15.7468 381.003 28.0499 382.761C36.993 384.045 45.7828 381.003 54.7258 381.565C64.1416 382.04 73.4424 382.11 82.6282 385.768C88.339 388.036 94.3692 387.052 100.233 386.049C105.9 385.047 111.636 385.047 117.302 386.049C127.73 388.001 138.315 387.716 148.679 385.205C157.098 383.078 165.773 382.726 174.333 381.583C174.812 381.617 175.291 381.54 175.751 381.354C184.694 374.637 194.212 378.295 203.564 378.295C207.226 378.445 210.879 377.719 214.36 376.149C220.914 372.844 228.004 375.481 234.494 371.982C235.874 371.243 237.637 371.753 239.221 371.894C243.399 372.228 247.628 372.545 251.333 369.38C258.551 363.155 266.664 368.149 274.329 365.476C277.983 364.175 281.918 364.298 285.713 363.717C291.564 362.733 297.3 361.959 303.241 363.981C307.917 365.617 312.734 363.559 317.384 361.871C331.744 356.596 346.155 351.321 361.18 353.536C371.95 355.172 382.63 357.967 393.311 360.57C397.869 361.563 402.512 361.563 407.07 360.57C426.592 356.86 446.1 355.893 465.481 362.469C468.733 363.602 472.058 364.285 475.408 364.509C483.066 365.031 490.634 367.019 497.894 370.417C506.24 374.268 515.067 375.752 523.841 374.778C532.171 373.811 540.386 375.78 548.614 377.275C551.935 377.873 553.609 382.761 557.161 382.55C568.148 382.128 579.148 382.075 590.135 381.477C593.866 381.266 596.97 377.961 600.202 375.587C604.291 372.615 608.532 372.07 613.119 371.947C625.051 371.595 636.933 370.276 648.444 365.124C661.581 359.525 675.418 357.729 689.084 359.849C692.916 360.359 696.749 361.045 700.122 357.545C701.202 356.595 702.471 356.134 703.75 356.227C712.834 356.737 721.956 355.084 731.001 356.754C733.033 357.344 735.151 356.887 736.955 355.471C742.908 350.477 749.322 350.195 755.94 352.059C761.254 353.536 766.633 354.679 771.871 356.543C783.574 360.728 795.494 361.009 807.439 360.992C813.277 360.992 818.541 364.685 824.329 365.195C828.755 365.875 833.227 365.745 837.628 364.808C839.009 364.236 840.473 364.158 841.883 364.579C853.023 370.294 864.074 362.997 874.946 364.157C890.737 365.915 905.366 357.44 920.837 357.246C931.992 357.317 943.115 358.866 954.054 361.871C964.032 364.438 974.393 365.107 983.758 371.367C984.198 371.641 984.685 371.739 985.163 371.648C994.503 369.503 1002.99 374.039 1011.81 377.134C1023.62 381.249 1035.86 379.912 1047.93 378.172C1054 377.292 1059.99 376.589 1065.96 379.227C1067.63 379.979 1069.42 380.16 1071.16 379.754C1079.79 377.433 1088.57 378.576 1097.26 377.644C1103.33 377.192 1109.42 378.143 1115.26 380.458C1120.06 382.216 1124 381.987 1128.64 377.75C1134.64 372.298 1142.24 372.474 1149.42 372.07C1163.32 371.243 1176.9 376.466 1190.74 376.061C1195.94 375.903 1201.22 376.818 1206.39 374.848C1207.93 374.226 1209.55 374.154 1211.12 374.637C1221.82 378.646 1232.91 378.013 1243.8 379.912C1249.33 380.862 1255.01 379.912 1260.41 379.912C1266.51 379.912 1273.26 381.671 1279.66 383.341C1286.37 385.1 1292.86 388.195 1299.72 388.933C1307.5 389.777 1314.79 385.996 1322.34 384.643C1331.29 383.06 1340.23 381.935 1349.17 380.264C1353.2 379.508 1357.17 378.172 1361.17 377.222C1365.17 376.272 1366.05 377.644 1366 382.497C1365.78 402.701 1365.7 422.941 1365.47 443.074C1365.19 451.868 1365.32 460.678 1365.84 469.451C1366.14 473.108 1365.59 475.165 1362.34 474.99C1273.44 470.295 1184.52 473.706 1095.61 473.53C813.622 472.944 531.639 472.891 249.659 473.372C165.032 473.372 80.4052 473.167 -4.22182 472.756C-5.79325 472.756 -7.37754 472.475 -8.94897 472.317L-8.99996 378.805Z" fill="#151515"/>
</g>
<defs>
<clipPath id="clip0_223_2867">
<rect width="1366" height="1080" fill="white"/>
</clipPath>
</defs>
</svg>
