<svg width="500" height="500" viewBox="0 0 500 500" fill="none" xmlns="http://www.w3.org/2000/svg">
<path d="M216.818 114.61C201.49 127.811 191.47 129.205 177.723 120.945C168.656 115.507 168.151 106.947 176.639 100.58C181.102 97.1651 186.656 95.5029 192.257 95.9057C208.819 97.1095 221.53 92.1283 227.467 73.4901C231.169 80.2314 230.78 85.6859 229.322 92.5849C244.228 82.2903 248.658 68.6168 247.276 51.5396C250.689 53.335 253.404 56.2259 254.985 59.7502C268.367 86.8647 270.843 114.544 257.511 142.339C249.718 158.586 235.931 168.308 219.236 174.285C214.947 175.83 212.719 174.045 211.883 170.325C211.054 166.83 209.564 162.131 215.352 161.484C223.302 160.595 224.644 155.423 224.867 148.889C225.165 139.898 223.343 131.455 217.075 124.88C214.002 121.675 215.957 118.886 216.818 114.61Z" fill="#E85F0C"/>
<path d="M296.498 291.776C297.591 292.822 297.376 293.96 296.076 294.225C294.118 294.535 292.135 294.649 290.155 294.566C243.444 294.566 196.737 294.541 150.032 294.491C147.547 294.491 143.034 296.425 142.96 292.457C142.91 289.36 147.349 290.73 149.758 290.705C164.59 290.564 179.429 290.398 194.244 290.763C199.825 290.896 202.301 289.352 202.525 283.507C202.815 276.218 204.256 268.979 204.496 261.689C204.62 257.621 206.086 255.878 209.763 254.633C220.387 250.988 231.459 248.506 240.734 241.408C244.982 238.161 249.619 235.638 251.035 228.257C253.362 234.625 253.644 239.672 253.851 244.554C254.414 257.406 255.01 270.29 253.023 283.084C252.153 288.621 253.271 291.129 259.647 290.78C269.8 290.232 280.002 290.589 290.188 290.672C292.299 290.672 294.651 289.883 296.473 291.768C295.065 292.689 293.475 292.382 291.952 292.382C245.23 292.382 198.514 292.382 151.804 292.382C150.694 292.382 149.593 292.382 149.527 292.382H230.846C250.555 292.382 270.261 292.382 289.964 292.382C292.15 292.374 294.411 292.914 296.498 291.776Z" fill="#E79912"/>
<path d="M390.645 131.322C393.535 116.503 385.742 106.092 375.466 96.4536C365.056 86.7235 364.054 74.4863 367.922 61.4604C371.863 48.1771 381.03 40.4728 394.015 36.6538C394.28 37.484 394.619 38.0071 394.487 38.1482C380.948 53.9221 380.972 68.293 394.603 84.4986C408.739 101.31 408.374 117.948 393.559 130.733C392.93 131.297 392.367 132.144 390.645 131.322Z" fill="#E4E1CE"/>
<path d="M151.746 138.495C151.687 135.581 152.231 132.687 153.344 129.994C155.588 124.291 158.594 118.371 165.211 117.915C171.827 117.458 176.316 122.73 179.926 127.877C181.789 130.517 182.477 133.456 177.318 133.298C172.349 133.149 170.883 135.473 172.838 139.94C174.171 142.995 176.829 144.523 179.587 145.992C183.214 147.876 186.093 150.943 187.749 154.687C189.405 158.431 189.739 162.629 188.696 166.59C186.352 175.722 178.096 179.043 170.171 173.58C158.006 165.162 153.063 152.708 151.746 138.495Z" fill="#E79912"/>
<path d="M39 387.778C45.7388 386.075 50.0382 387.364 54.2971 390.166C146.403 450.665 293.605 450.124 384.619 390.067C388.851 387.273 393.205 386.147 399 387.706C314.078 454.17 141.861 463.19 39 387.778Z" fill="#E79912"/>
<path d="M231.467 227.718C223.642 230.208 216.752 234.741 209.448 238.361C205.589 240.279 203.85 241.258 203.072 235.331C200.753 217.631 196.803 200.346 185.019 186.033C184.191 185.07 182.833 184.049 184.323 182.754C185.814 181.458 187.23 182.239 188.464 183.343C194.457 188.649 199.459 194.983 203.237 202.048C209.034 212.965 217.704 217.589 229.985 216.053C237.885 215.065 240.651 210.482 237.239 203.119C233.662 195.389 227.989 189.287 222.01 183.36C230.167 185.975 235.558 191.944 240.137 198.685C251.515 215.447 251.168 216.659 233.811 225.816C232.922 226.398 232.091 227.062 231.326 227.801L231.467 227.718Z" fill="#E85F0C"/>
<path d="M441.101 127.902C443.916 128.691 450.069 127.47 450.889 131.023C451.907 135.374 445.796 136.146 442.442 137.707C417.401 149.329 392.268 160.828 367.151 172.31C365.429 173.098 363.607 174.991 361.694 173.563C359.781 172.135 361.429 169.852 361.578 167.984C361.992 162.82 364.94 159.541 369.536 157.466C390.294 148.128 411.038 138.764 431.768 129.371C434.676 128.002 437.914 127.492 441.101 127.902Z" fill="#E85F0C"/>
<path d="M271.497 215.937C272.682 221.458 275.091 223.251 279.778 218.834C287.231 211.861 296.721 208.648 306.609 204.97C304.845 207.51 303.106 210.067 301.309 212.583C294.883 221.582 288.242 230.441 282.081 239.631C279.596 243.284 277.518 243.508 274.048 241.358C270.578 239.208 266.595 237.456 262.885 235.546C261.121 234.633 259.341 233.828 259.225 231.329C259.109 228.83 259.457 224.687 256.741 224.571C253.263 224.446 249.139 226.231 247.681 230.125C245.089 237.007 238.614 237.447 232.287 241.291C234.44 234.65 240.146 235.306 243.417 231.761C240.56 230.631 238.862 233.57 235.136 232.591C247.085 225.617 258.604 220.287 270.032 214.808C270.711 214.974 271.423 215.057 271.497 215.937Z" fill="#E79912"/>
<path d="M180.241 236.842C170.95 226.605 169.525 226.049 152.085 225.958L168.573 189.428C183.181 204.281 188.497 226.647 180.241 236.842Z" fill="#E85F0C"/>
<path d="M461 138.205C460.578 139.94 459.054 140.488 457.688 141.144C426.949 155.833 396.204 170.5 365.454 185.145C363.798 185.975 361.578 187.469 360.485 184.58C359.533 182.089 361.611 180.977 363.417 180.114C371.598 176.212 379.821 172.384 388.036 168.532C410.058 158.193 432.086 147.863 454.118 137.541C455.486 136.831 456.939 136.301 458.441 135.963C458.766 135.872 459.108 135.863 459.437 135.937C459.767 136.011 460.072 136.167 460.326 136.389C460.58 136.612 460.775 136.895 460.892 137.211C461.01 137.528 461.047 137.87 461 138.205Z" fill="#E79912"/>
<path d="M228.908 234.575C226.424 239.382 222.283 241.873 217.215 243.491C199.353 249.178 181.665 255.438 163.513 260.22C160.275 261.05 157.021 261.739 153.783 260.436C152.127 259.763 150.471 258.709 150.346 256.733C150.197 254.06 152.665 254.525 154.18 254.184C173.989 249.726 193.772 245.202 213.638 241.051C219.286 239.872 224.105 237.937 227.534 233.172C228.693 232.915 229.306 233.238 228.908 234.575Z" fill="#E85F0C"/>
<path d="M361.628 294.483C350.581 294.483 339.542 294.483 328.504 294.483C327.104 294.483 324.86 295.122 324.678 293.022C324.438 290.29 326.988 290.896 328.537 290.888C350.846 290.827 373.158 290.827 395.472 290.888C397.046 290.888 399.613 290.373 399.307 293.071C399.099 295.122 396.822 294.491 395.431 294.499C384.161 294.508 372.898 294.483 361.628 294.483Z" fill="#E79912"/>
<path d="M75.9747 295.022C64.9278 295.022 53.8893 295.022 42.8507 294.981C41.4512 294.981 39.207 295.62 39.0248 293.52C38.7847 290.788 41.3352 291.394 42.8838 291.394C65.1928 291.328 87.5046 291.328 109.819 291.394C111.393 291.394 113.96 290.88 113.653 293.578C113.446 295.628 111.169 294.997 109.778 295.006C98.5073 295.047 87.2451 295.022 75.9747 295.022Z" fill="#E79912"/>
<path d="M237.794 188.009C243.176 188.382 245.802 190.989 248.377 193.77C252.294 197.988 256.352 202.072 260.219 206.331C261.32 207.544 263.846 208.581 262.836 210.424C261.535 212.766 258.596 213.629 256.128 214.252C253.66 214.874 253.693 212.093 253.081 210.64C249.561 202.396 244.46 195.232 237.794 188.009Z" fill="#E85F0C"/>
<path d="M271.497 215.937L270.065 214.75C288.548 205.418 307.02 196.067 325.481 186.697C327.527 185.659 330.317 185.41 331.021 182.546C333.506 182.546 333.224 183.982 332.512 185.593C312.472 196.286 292.067 206.273 271.497 215.937Z" fill="#E85F0C"/>
<path d="M332.512 185.568C332.379 184.373 332.346 183.127 331.021 182.521C326.003 181.434 322.368 185.194 317.962 186.373C318.865 177.357 320.115 176.278 328.305 177.158C335.162 177.897 342.134 180.637 348.685 175.174L349.405 177.316L332.512 185.568Z" fill="#E85F0C"/>
<path d="M232.825 49.1235C240.212 55.8897 242.241 62.0083 239.649 68.4341C238.92 70.219 238.324 73.0002 236.254 72.8508C233.769 72.6681 233.554 69.6462 233.19 67.6205C232.77 65.4525 232.789 63.222 233.248 61.0619C234.15 57.2844 233.14 53.6481 232.825 49.1235Z" fill="#E13F00"/>
<path d="M237.612 20C239.193 25.6288 243.599 29.4726 245.487 34.6282C246.1 36.2886 246.779 38.5136 245.338 39.6095C243.731 40.8133 242.025 39.0366 240.775 37.949C234.854 32.918 234.829 26.6582 237.612 20Z" fill="#DA3E00"/>
<path d="M175.206 240.586C174.585 247.227 169.914 247.045 165.931 247.817C164.408 248.116 162.958 247.435 163.803 245.791C165.691 242.13 164.871 236.277 169.666 235.173C172.308 234.567 174.601 238.22 175.206 240.586Z" fill="#E85F0C"/>
<path d="M172.896 267.982L134.505 286.953L133.735 285.409L172.482 265.907L172.896 267.982Z" fill="#E79912"/>
<path d="M326.26 193.123L341.886 185.086C338.632 190.45 335.733 196.352 326.26 193.123Z" fill="#E79912"/>
<path d="M228.908 234.575L227.534 233.172L231.5 227.718L231.384 227.801C232.552 228.025 234.382 227.967 233.041 229.893C231.77 231.545 230.39 233.11 228.908 234.575Z" fill="#E79912"/>
<path d="M296.498 291.776C294.999 293.644 292.887 293.146 290.958 293.154C243.613 293.154 196.276 293.154 148.947 293.154C147.738 293.154 146.363 293.627 144.748 291.776H296.498Z" fill="#E79912"/>
<path d="M70.322 351.163C69.8 351.163 69.133 351.163 68.321 351.163C67.509 351.163 66.9 351.134 66.494 351.076L67.712 346.204H70.148C74.266 346.204 77.514 345.45 79.892 343.942C82.328 342.376 84.097 340.433 85.199 338.113C86.301 335.735 86.852 333.386 86.852 331.066C86.852 328.34 86.185 326.078 84.851 324.28C83.517 322.424 81.661 321.032 79.283 320.104C76.905 319.176 74.121 318.712 70.931 318.712C68.495 318.712 66.001 319.06 63.449 319.756C60.955 320.394 58.606 321.438 56.402 322.888C54.198 324.338 52.429 326.223 51.095 328.543C49.761 330.863 49.094 333.705 49.094 337.069C49.094 338.519 49.268 339.853 49.616 341.071C49.964 342.289 50.544 343.71 51.356 345.334C50.718 345.856 49.993 346.262 49.181 346.552C48.369 346.784 47.528 346.9 46.658 346.9C45.15 346.9 43.787 346.494 42.569 345.682C41.409 344.87 40.51 343.739 39.872 342.289C39.234 340.781 38.915 339.07 38.915 337.156C38.915 333.85 39.727 330.805 41.351 328.021C43.033 325.179 45.353 322.685 48.311 320.539C51.327 318.393 54.865 316.711 58.925 315.493C63.043 314.275 67.509 313.666 72.323 313.666C76.093 313.666 79.486 314.072 82.502 314.884C85.518 315.638 88.099 316.769 90.245 318.277C92.391 319.727 94.044 321.525 95.204 323.671C96.364 325.759 96.944 328.166 96.944 330.892C96.944 333.908 96.248 336.663 94.856 339.157C93.464 341.651 91.521 343.797 89.027 345.595C86.591 347.335 83.749 348.698 80.501 349.684C77.311 350.67 73.918 351.163 70.322 351.163ZM55.706 374.218C54.836 374.218 53.937 374.073 53.009 373.783C52.081 373.493 51.327 373.029 50.747 372.391C51.385 371.869 51.965 371.173 52.487 370.303C53.009 369.433 53.473 368.418 53.879 367.258C54.285 366.098 54.604 364.851 54.836 363.517L61.187 331.327C61.593 329.413 62.115 327.818 62.753 326.542C63.449 325.266 64.348 324.309 65.45 323.671C66.552 322.975 67.915 322.627 69.539 322.627C71.221 322.627 72.526 322.975 73.454 323.671C74.44 324.309 75.02 325.092 75.194 326.02C73.744 326.716 72.758 327.789 72.236 329.239C71.772 330.631 71.366 332.139 71.018 333.763L64.232 366.91C63.942 368.534 63.391 369.897 62.579 370.999C61.767 372.043 60.781 372.826 59.621 373.348C58.461 373.928 57.156 374.218 55.706 374.218ZM103.254 374.74C101.398 374.74 99.9475 374.218 98.9035 373.174C97.8595 372.13 97.3375 370.68 97.3375 368.824C97.3375 368.128 97.3955 367.287 97.5115 366.301C97.6275 365.315 97.7725 364.3 97.9465 363.256C98.1205 362.154 98.2945 361.139 98.4685 360.211C98.7005 359.225 98.8745 358.384 98.9905 357.688L104.907 328.63L114.825 327.586L107.517 363.952C107.459 364.416 107.372 365.025 107.256 365.779C107.14 366.475 107.082 367.084 107.082 367.606C107.082 368.476 107.285 369.172 107.691 369.694C108.155 370.216 108.822 370.506 109.692 370.564C109.344 372.014 108.532 373.058 107.256 373.696C106.038 374.392 104.704 374.74 103.254 374.74ZM112.041 320.974C110.185 320.974 108.648 320.539 107.43 319.669C106.212 318.741 105.603 317.378 105.603 315.58C105.603 313.666 106.241 312.274 107.517 311.404C108.793 310.476 110.359 310.012 112.215 310.012C114.071 310.012 115.608 310.476 116.826 311.404C118.044 312.274 118.653 313.608 118.653 315.406C118.653 317.32 118.015 318.741 116.739 319.669C115.463 320.539 113.897 320.974 112.041 320.974ZM125.689 390.4C121.629 390.4 118.526 389.501 116.38 387.703C114.234 385.905 113.161 383.324 113.161 379.96C113.161 377.118 114.06 374.45 115.858 371.956C117.598 369.404 120.092 367.055 123.34 364.909C126.646 362.705 130.59 360.762 135.172 359.08L138.826 362.734C134.476 364.068 131.112 365.721 128.734 367.693C126.356 369.607 124.703 371.608 123.775 373.696C122.847 375.842 122.383 377.872 122.383 379.786C122.383 381.7 122.789 383.121 123.601 384.049C124.471 384.977 125.689 385.441 127.255 385.441C129.517 385.441 131.46 384.629 133.084 383.005C134.708 381.381 135.955 379.322 136.825 376.828C137.695 374.334 138.13 371.84 138.13 369.346C138.13 366.852 137.695 364.735 136.825 362.995C136.013 361.255 134.737 359.95 132.997 359.08C131.257 358.152 129.082 357.688 126.472 357.688C125.892 357.688 125.283 357.746 124.645 357.862C124.007 357.92 123.485 358.007 123.079 358.123L129.778 352.294C133.722 352.294 137.028 352.99 139.696 354.382C142.364 355.774 144.365 357.659 145.699 360.037C147.033 362.357 147.7 364.996 147.7 367.954C147.7 370.854 147.149 373.638 146.047 376.306C145.003 379.032 143.495 381.439 141.523 383.527C139.551 385.673 137.202 387.355 134.476 388.573C131.808 389.791 128.879 390.4 125.689 390.4ZM123.079 358.123C122.441 357.833 121.977 357.514 121.687 357.166C121.397 356.76 121.252 356.383 121.252 356.035C121.252 355.455 121.368 354.991 121.6 354.643C121.89 354.237 122.325 353.773 122.905 353.251L143.35 336.46C142.132 336.228 140.682 336.025 139 335.851C137.318 335.677 135.665 335.532 134.041 335.416C132.417 335.242 131.083 335.155 130.039 335.155C128.357 335.155 126.994 335.358 125.95 335.764C124.906 336.112 123.978 336.75 123.166 337.678C122.644 336.808 122.238 335.938 121.948 335.068C121.658 334.198 121.513 333.299 121.513 332.371C121.513 330.341 122.354 328.92 124.036 328.108C125.776 327.296 127.864 326.89 130.3 326.89C132.156 326.89 134.041 327.064 135.955 327.412C137.927 327.702 139.87 328.021 141.784 328.369C143.698 328.717 145.583 328.891 147.439 328.891C149.469 328.891 151.093 328.572 152.311 327.934C152.833 328.514 153.181 329.123 153.355 329.761C153.587 330.399 153.703 331.095 153.703 331.849C153.703 332.661 153.442 333.56 152.92 334.546C152.456 335.532 151.673 336.46 150.571 337.33L130.213 353.338L123.079 358.123ZM160.863 390.4C156.803 390.4 153.7 389.501 151.554 387.703C149.408 385.905 148.335 383.324 148.335 379.96C148.335 377.118 149.234 374.45 151.032 371.956C152.772 369.404 155.266 367.055 158.514 364.909C161.82 362.705 165.764 360.762 170.346 359.08L174 362.734C169.65 364.068 166.286 365.721 163.908 367.693C161.53 369.607 159.877 371.608 158.949 373.696C158.021 375.842 157.557 377.872 157.557 379.786C157.557 381.7 157.963 383.121 158.775 384.049C159.645 384.977 160.863 385.441 162.429 385.441C164.691 385.441 166.634 384.629 168.258 383.005C169.882 381.381 171.129 379.322 171.999 376.828C172.869 374.334 173.304 371.84 173.304 369.346C173.304 366.852 172.869 364.735 171.999 362.995C171.187 361.255 169.911 359.95 168.171 359.08C166.431 358.152 164.256 357.688 161.646 357.688C161.066 357.688 160.457 357.746 159.819 357.862C159.181 357.92 158.659 358.007 158.253 358.123L164.952 352.294C168.896 352.294 172.202 352.99 174.87 354.382C177.538 355.774 179.539 357.659 180.873 360.037C182.207 362.357 182.874 364.996 182.874 367.954C182.874 370.854 182.323 373.638 181.221 376.306C180.177 379.032 178.669 381.439 176.697 383.527C174.725 385.673 172.376 387.355 169.65 388.573C166.982 389.791 164.053 390.4 160.863 390.4ZM158.253 358.123C157.615 357.833 157.151 357.514 156.861 357.166C156.571 356.76 156.426 356.383 156.426 356.035C156.426 355.455 156.542 354.991 156.774 354.643C157.064 354.237 157.499 353.773 158.079 353.251L178.524 336.46C177.306 336.228 175.856 336.025 174.174 335.851C172.492 335.677 170.839 335.532 169.215 335.416C167.591 335.242 166.257 335.155 165.213 335.155C163.531 335.155 162.168 335.358 161.124 335.764C160.08 336.112 159.152 336.75 158.34 337.678C157.818 336.808 157.412 335.938 157.122 335.068C156.832 334.198 156.687 333.299 156.687 332.371C156.687 330.341 157.528 328.92 159.21 328.108C160.95 327.296 163.038 326.89 165.474 326.89C167.33 326.89 169.215 327.064 171.129 327.412C173.101 327.702 175.044 328.021 176.958 328.369C178.872 328.717 180.757 328.891 182.613 328.891C184.643 328.891 186.267 328.572 187.485 327.934C188.007 328.514 188.355 329.123 188.529 329.761C188.761 330.399 188.877 331.095 188.877 331.849C188.877 332.661 188.616 333.56 188.094 334.546C187.63 335.532 186.847 336.46 185.745 337.33L165.387 353.338L158.253 358.123ZM202.388 374.74C199.43 374.74 197.023 374.044 195.167 372.652C193.369 371.202 192.035 369.259 191.165 366.823C190.353 364.329 189.947 361.487 189.947 358.297C189.947 354.005 190.527 349.974 191.687 346.204C192.847 342.376 194.5 339.012 196.646 336.112C198.85 333.212 201.402 330.95 204.302 329.326C207.202 327.702 210.392 326.89 213.872 326.89C216.714 326.89 219.701 327.499 222.833 328.717L231.62 327.586L224.66 363.952C224.602 364.474 224.515 365.083 224.399 365.779C224.283 366.475 224.225 367.084 224.225 367.606C224.225 368.476 224.428 369.172 224.834 369.694C225.298 370.216 225.994 370.506 226.922 370.564C226.632 371.55 226.139 372.362 225.443 373C224.805 373.58 224.051 374.015 223.181 374.305C222.369 374.595 221.441 374.74 220.397 374.74C218.831 374.74 217.497 374.305 216.395 373.435C215.293 372.623 214.655 371.405 214.481 369.781C212.973 371.231 211.175 372.42 209.087 373.348C207.057 374.276 204.824 374.74 202.388 374.74ZM206.216 369.52C208.42 369.52 210.189 368.795 211.523 367.345C212.915 365.895 214.017 364.097 214.829 361.951C215.641 359.747 216.25 357.63 216.656 355.6L220.484 334.807C219.324 333.879 218.106 333.212 216.83 332.806C215.612 332.342 214.481 332.11 213.437 332.11C211.639 332.11 210.015 332.632 208.565 333.676C207.173 334.72 205.926 336.141 204.824 337.939C203.78 339.737 202.881 341.825 202.127 344.203C201.431 346.581 200.909 349.133 200.561 351.859C200.213 354.527 200.039 357.224 200.039 359.95C200.039 362.618 200.474 364.88 201.344 366.736C202.214 368.592 203.838 369.52 206.216 369.52ZM235.652 374.044L244.352 328.63L252.617 327.586L251.573 335.416C252.675 332.922 254.328 330.892 256.532 329.326C258.736 327.702 261.201 326.89 263.927 326.89C266.769 326.89 268.828 327.731 270.104 329.413C271.438 331.095 272.105 333.154 272.105 335.59C272.105 338.49 271.322 340.984 269.756 343.072C268.19 345.16 266.131 346.204 263.579 346.204C262.883 346.204 262.158 346.088 261.404 345.856C260.708 345.624 260.157 345.218 259.751 344.638C260.505 343.652 261.114 342.463 261.578 341.071C262.042 339.621 262.274 338.316 262.274 337.156C262.274 336.054 262.013 335.184 261.491 334.546C261.027 333.908 260.244 333.589 259.142 333.589C257.75 333.589 256.532 334.111 255.488 335.155C254.444 336.141 253.574 337.417 252.878 338.983C252.182 340.549 251.602 342.231 251.138 344.029C250.732 345.769 250.384 347.364 250.094 348.814L245.831 373L235.652 374.044ZM277.848 374.74C275.992 374.74 274.542 374.218 273.498 373.174C272.454 372.13 271.932 370.68 271.932 368.824C271.932 368.128 271.99 367.287 272.106 366.301C272.222 365.315 272.367 364.3 272.541 363.256C272.715 362.154 272.889 361.139 273.063 360.211C273.295 359.225 273.469 358.384 273.585 357.688L279.501 328.63L289.419 327.586L282.111 363.952C282.053 364.416 281.966 365.025 281.85 365.779C281.734 366.475 281.676 367.084 281.676 367.606C281.676 368.476 281.879 369.172 282.285 369.694C282.749 370.216 283.416 370.506 284.286 370.564C283.938 372.014 283.126 373.058 281.85 373.696C280.632 374.392 279.298 374.74 277.848 374.74ZM286.635 320.974C284.779 320.974 283.242 320.539 282.024 319.669C280.806 318.741 280.197 317.378 280.197 315.58C280.197 313.666 280.835 312.274 282.111 311.404C283.387 310.476 284.953 310.012 286.809 310.012C288.665 310.012 290.202 310.476 291.42 311.404C292.638 312.274 293.247 313.608 293.247 315.406C293.247 317.32 292.609 318.741 291.333 319.669C290.057 320.539 288.491 320.974 286.635 320.974ZM326.297 374.74C324.499 374.74 323.049 374.218 321.947 373.174C320.903 372.188 320.381 370.535 320.381 368.215C320.381 366.939 320.555 365.286 320.903 363.256C321.309 361.226 321.773 359.08 322.295 356.818C322.817 354.498 323.339 352.207 323.861 349.945C324.383 347.683 324.818 345.653 325.166 343.855C325.572 341.999 325.775 340.549 325.775 339.505C325.775 337.591 325.282 336.141 324.296 335.155C323.31 334.111 322.005 333.589 320.381 333.589C318.119 333.589 316.205 334.372 314.639 335.938C313.073 337.504 311.797 339.476 310.811 341.854C309.825 344.174 309.1 346.494 308.636 348.814L303.938 373L294.02 374.044L302.894 328.63L311.159 327.586L310.115 335.416C311.681 332.632 313.769 330.515 316.379 329.065C318.989 327.615 321.744 326.89 324.644 326.89C328.182 326.89 330.879 327.818 332.735 329.674C334.591 331.472 335.519 334.024 335.519 337.33C335.519 338.954 335.345 340.839 334.997 342.985C334.649 345.131 334.185 347.422 333.605 349.858C333.083 352.236 332.561 354.556 332.039 356.818C331.517 359.08 331.053 361.139 330.647 362.995C330.299 364.851 330.125 366.301 330.125 367.345C330.125 368.215 330.299 368.94 330.647 369.52C330.995 370.1 331.691 370.448 332.735 370.564C332.387 372.014 331.604 373.058 330.386 373.696C329.168 374.392 327.805 374.74 326.297 374.74ZM347.686 374.74C345.83 374.74 344.38 374.218 343.336 373.174C342.292 372.13 341.77 370.68 341.77 368.824C341.77 368.128 341.828 367.287 341.944 366.301C342.06 365.315 342.205 364.3 342.379 363.256C342.553 362.154 342.727 361.139 342.901 360.211C343.133 359.225 343.307 358.384 343.423 357.688L349.339 328.63L359.257 327.586L351.949 363.952C351.891 364.416 351.804 365.025 351.688 365.779C351.572 366.475 351.514 367.084 351.514 367.606C351.514 368.476 351.717 369.172 352.123 369.694C352.587 370.216 353.254 370.506 354.124 370.564C353.776 372.014 352.964 373.058 351.688 373.696C350.47 374.392 349.136 374.74 347.686 374.74ZM356.473 320.974C354.617 320.974 353.08 320.539 351.862 319.669C350.644 318.741 350.035 317.378 350.035 315.58C350.035 313.666 350.673 312.274 351.949 311.404C353.225 310.476 354.791 310.012 356.647 310.012C358.503 310.012 360.04 310.476 361.258 311.404C362.476 312.274 363.085 313.608 363.085 315.406C363.085 317.32 362.447 318.741 361.171 319.669C359.895 320.539 358.329 320.974 356.473 320.974ZM379.692 374.74C376.676 374.74 374.182 374.276 372.21 373.348C370.296 372.42 368.788 371.202 367.686 369.694C366.584 368.128 365.801 366.446 365.337 364.648C364.931 362.792 364.728 360.994 364.728 359.254C364.728 355.31 365.192 351.424 366.12 347.596C367.106 343.768 368.585 340.288 370.557 337.156C372.587 334.024 375.139 331.53 378.213 329.674C381.345 327.818 385.086 326.89 389.436 326.89C392.51 326.89 395.004 327.354 396.918 328.282C398.832 329.21 400.34 330.457 401.442 332.023C402.602 333.531 403.385 335.213 403.791 337.069C404.197 338.867 404.4 340.607 404.4 342.289C404.4 346.233 403.907 350.148 402.921 354.034C401.993 357.862 400.514 361.342 398.484 364.474C396.512 367.606 393.96 370.1 390.828 371.956C387.754 373.812 384.042 374.74 379.692 374.74ZM381.345 369.52C383.085 369.52 384.651 368.94 386.043 367.78C387.435 366.62 388.653 365.054 389.697 363.082C390.741 361.052 391.582 358.819 392.22 356.383C392.916 353.889 393.438 351.337 393.786 348.727C394.134 346.117 394.308 343.594 394.308 341.158C394.308 338.49 393.844 336.315 392.916 334.633C391.988 332.951 390.306 332.11 387.87 332.11C386.13 332.11 384.535 332.69 383.085 333.85C381.635 335.01 380.388 336.576 379.344 338.548C378.358 340.52 377.517 342.753 376.821 345.247C376.125 347.683 375.603 350.235 375.255 352.903C374.965 355.513 374.82 358.036 374.82 360.472C374.82 363.082 375.284 365.257 376.212 366.997C377.198 368.679 378.909 369.52 381.345 369.52Z" fill="#FF7E00"/>
</svg>
